<svg xmlns="http://www.w3.org/2000/svg" xmlns:xlink="http://www.w3.org/1999/xlink" version="1.1" x="0px" y="0px" viewBox="0 0 100 125" enable-background="new 0 0 100 100" xml:space="preserve"><g><path fill="#000000" d="M82.339,21.594c-2.133,0-4.239,0.547-6.127,1.588c-7.78-8.132-15.129-12.086-22.454-12.086   c-8.586,0-15.471,5.734-19.903,10.046c-9.12,8.877-17.407,29.578-18.844,33.279c-2.792,0.125-5.048,1.163-6.718,3.09   c-4.01,4.632-3.125,12.728-3.092,12.968v10.029c-0.002,0.074-0.036,1.862,1.369,3.348c1.208,1.276,3.059,1.924,5.503,1.924   c3.144,0,7.909-1.143,12.952-2.353c4.875-1.17,9.915-2.38,13.054-2.38c6.444,0,17.284,2.094,23.365,4.049   c2.954,0.95,5.546,1.432,7.702,1.432c2.026,0,3.635-0.439,4.783-1.306c1.36-1.028,2.052-2.604,2.052-4.689V69.708   c0-11.565-8.926-14.582-11.23-15.167c-0.368-1.254-1.556-5.138-4.895-15.011c-1.874-5.536-1.363-7.999-0.606-9.091   c0.56-0.808,1.505-1.217,2.811-1.217c1.225,0,2.401,0.364,2.995,0.581c2.044,0.75,3.555,2.722,4.346,3.983   c-0.031,0.372-0.049,0.75-0.049,1.131c0,7.346,5.826,13.324,12.986,13.324c7.162,0,12.988-5.978,12.988-13.324   S89.501,21.594,82.339,21.594z M74.294,69.708v10.825c0,1.525-0.446,2.604-1.364,3.297c-0.852,0.642-2.124,0.968-3.783,0.968   c-1.958,0-4.444-0.468-7.198-1.354c-6.174-1.984-17.056-4.127-23.869-4.127c-3.333,0-8.471,1.232-13.438,2.425   c-4.729,1.134-9.619,2.308-12.568,2.308c-1.954,0-3.391-0.464-4.272-1.376c-0.915-0.95-0.914-2.074-0.914-2.141L6.881,70.378   c-0.008-0.075-0.832-7.675,2.678-11.721c1.448-1.67,3.476-2.517,6.032-2.517c0.081,0,0.163-0.012,0.244-0.037   c0.165-0.052,17.052-5.117,48.112,0.025h0.001l0,0C64.369,56.199,74.294,57.995,74.294,69.708z M82.339,46.51   c-6.231,0-11.3-5.203-11.3-11.594c0-0.422,0.025-0.839,0.067-1.25c0.021-0.191-0.022-0.383-0.12-0.545   c-1.047-1.745-2.829-4.019-5.364-4.947c-0.695-0.255-2.08-0.682-3.562-0.682c-1.855,0-3.302,0.672-4.185,1.944   c-1.438,2.071-1.308,5.657,0.385,10.662c2.789,8.247,4.074,12.308,4.628,14.125c-25.528-4.044-41.062-1.341-45.894-0.204   c2.189-5.453,9.907-23.722,18.02-31.62c4.223-4.109,10.761-9.572,18.743-9.572c6.889,0,14.188,4.051,21.696,12.041   c0.276,0.292,0.71,0.351,1.044,0.139c1.771-1.1,3.792-1.682,5.841-1.682c6.232,0,11.302,5.199,11.302,11.591   C93.641,41.307,88.571,46.51,82.339,46.51z"/><path fill="#000000" d="M82.474,27.805c-3.682,0-6.678,3.073-6.678,6.851c0,3.777,2.996,6.849,6.678,6.849   c3.684,0,6.68-3.072,6.68-6.849C89.153,30.878,86.157,27.805,82.474,27.805z M82.474,39.774c-2.752,0-4.989-2.297-4.989-5.119   c0-2.824,2.237-5.12,4.989-5.12c2.753,0,4.992,2.296,4.992,5.12C87.466,37.477,85.227,39.774,82.474,39.774z"/></g><text x="0" y="115" fill="#000000" font-size="5px" font-weight="bold" font-family="'Helvetica Neue', Helvetica, Arial-Unicode, Arial, Sans-serif">Created by khaleel</text><text x="0" y="120" fill="#000000" font-size="5px" font-weight="bold" font-family="'Helvetica Neue', Helvetica, Arial-Unicode, Arial, Sans-serif">from the Noun Project</text></svg>