<svg xmlns="http://www.w3.org/2000/svg" xmlns:xlink="http://www.w3.org/1999/xlink" version="1.1" x="0px" y="0px" viewBox="0 0 100 125" enable-background="new 0 0 100 100" xml:space="preserve"><path d="M91.826,57.783h-0.345c-0.438-22.312-18.713-40.332-41.128-40.332c-22.307,0-40.512,17.847-41.12,40.01  c-4.823,0.615-8.566,4.736-8.566,9.724c0,5.409,4.401,9.811,9.811,9.811c5.41,0,9.811-4.401,9.811-9.811  c0-5.055-3.843-9.227-8.76-9.753c0.594-6.795,6.308-12.147,13.255-12.147c7.07,0,12.854,5.543,13.274,12.509  c-4.407,0.116-7.959,3.729-7.959,8.164c0,4.508,3.667,8.175,8.175,8.175h53.552c4.508,0,8.175-3.667,8.175-8.175  S96.334,57.783,91.826,57.783z M17.836,67.185c0,4.058-3.301,7.357-7.358,7.357c-4.057,0-7.358-3.3-7.358-7.357  s3.301-7.358,7.358-7.358C14.535,59.826,17.836,63.127,17.836,67.185z M91.826,71.68H38.274c-3.155,0-5.722-2.566-5.722-5.722  c0-3.156,2.567-5.723,5.722-5.723h53.552c3.155,0,5.722,2.566,5.722,5.723C97.548,69.113,94.981,71.68,91.826,71.68z"/><text x="0" y="115" fill="#000000" font-size="5px" font-weight="bold" font-family="'Helvetica Neue', Helvetica, Arial-Unicode, Arial, Sans-serif">Created by Sergi Delgado</text><text x="0" y="120" fill="#000000" font-size="5px" font-weight="bold" font-family="'Helvetica Neue', Helvetica, Arial-Unicode, Arial, Sans-serif">from the Noun Project</text></svg>